Patient4_TMGait_0pt2_01_right_15_EMG.mot
version=1
nRows=26
nColumns=33
inDegrees=no
endheader
time	1LAddLong	2LGlutMax	3LGlutMed	4LIliopsoas	5LSemiMemb	6LBicFemLong	7LRecFem	8LVastMed	9LVastLat	10LGasMed	11LTibAnt	12lTibPost	13LPeroneusLong	14LSol	15LExtDigLong	16LFlexDigLong	17RAddLong	18RGlutMax	19RGlutMed	20RIliopsoas	21RSemiMemb	22RBicFemLong	23RRecFem	24RVastMed	25RVastLat	26RGasMed	27RTibAnt	28RTibPost	29RPeroneusLong	30RSol	31RExtDigLong	32RFlexDigLong
33.14	-0.00824	0.002136	0.015259	-0.006561	-0.015106	-0.049591	0.079803	-0.039673	0.058746	-0.4628	-0.018768	0.024414	-0.009308	-0.11551	-0.055237	0.23529	-0.069885	0.46997	1.6377	-0.059052	-0.098724	-0.09201	0.21408	0.0177	-0.008392	-0.005493	0.41031	-0.007782	-0.083923	0.093231	-0.001526	-0.007019
33.141	-0.016785	0.035553	0.029907	0.002594	-0.028381	0.010223	0.083008	-0.014038	0.24597	-0.25452	-0.016022	0.028076	0.036774	0.011597	-0.026703	0.015106	-0.092926	0.40924	1.8217	-0.22049	-0.097198	-0.064392	0.16998	0.027008	0	-0.014954	0.29755	-0.004883	-0.15167	0.15884	-0.002136	-0.009003
33.142	-0.010834	0.064697	0.006866	0.016479	-0.030518	0.031281	0.012665	0.008087	0.39246	0.13184	-0.017853	0.011139	0.07019	0.38528	-0.012512	0.32974	-0.084381	0.29953	0.84671	-0.18692	-0.078583	-0.065918	0.15121	0.059509	0.014954	-0.01297	-0.5545	-0.006866	-0.20035	0.10681	-0.00412	-0.010681
33.143	-0.005035	0.045624	-0.11444	0.017853	-0.023499	0.020142	-0.082092	0.011597	0.50079	0.020599	-0.019989	0.02594	0.21698	0.4245	0.024567	0.090942	-0.047913	0.21698	0.30655	-0.06134	-0.076904	-0.064697	0.11887	0.0737	0.00946	-0.011597	-0.85571	-0.003967	-0.30548	-0.005341	0.000305	-0.008545
33.144	-0.001526	0.095978	-0.057526	-0.002441	-0.003967	0.016632	-0.10101	0.013885	0.48004	-0.012817	-0.009918	0.030975	0.16113	0.42862	0.046234	-0.029449	-0.020905	0.28442	0.74677	0.050812	-0.087738	-0.009918	0.099182	0.068207	0.010986	-0.002899	-0.47577	-0.00412	-0.25207	-0.025482	-0.00473	-0.007019
33.145	0.000458	0.09079	0.054932	-0.002747	0.010071	-0.10437	-0.11734	0.011292	0.159	0.044556	-0.002441	-0.020905	0.052338	0.27359	0.02655	-0.059204	-0.020905	0.22766	0.60913	0.09491	-0.090332	-0.009766	0.15274	0.09201	0.00824	-0.004883	0.057373	-0.003052	-0.15686	0.057831	0.001221	-0.006256
33.146	0.018616	0.14694	0.094452	0.014343	0.022736	-0.11002	-0.1622	0.009155	-0.26184	0.080719	-0.019226	0.022583	0.073242	-0.1416	0.008392	0.061646	0.021973	0.11948	0.74371	0.021362	-0.10803	-0.022583	0.15076	0.1207	0.028687	-0.000763	0.30579	-0.00351	0.048981	0.059509	-0.002747	-0.015411
33.147	0.004272	0.12146	0.07782	0.004272	0.019989	-0.035553	-0.21744	0.01358	-0.65063	0.058441	0.010986	0.026703	-0.072479	-0.43442	0.014954	0.054779	0.027924	0.093994	1.2079	-0.084534	-0.12863	-0.050049	0.16861	0.14191	0.049896	0.014954	0.37155	-0.001068	0.2179	-0.081787	-0.001831	0.003815
33.148	-0.003357	0.15823	0.015259	0.00946	0.005646	0.027313	-0.18509	0.011292	-0.47913	-0.013885	0.011597	0.010223	-0.063019	-0.215	0.019836	-0.005951	0.011597	0.071869	1.7433	-0.042267	-0.12695	-0.049133	0.17258	0.084381	0.036926	0.00885	0.14465	-0.003967	0.14526	0.034943	-0.009613	-0.00412
33.149	0.002594	0.13809	0.041199	0.006561	0.00946	0.050812	-0.070953	0.005341	-0.14023	-0.045319	0.004272	0.016785	-0.069733	-0.049744	0.016632	-0.02594	-0.020447	-0.014954	0.51224	0.13718	-0.11398	-0.068817	0.11871	0.074463	0.026245	-0.00824	0.12512	-0.004425	0.039825	0.20462	-0.006104	-0.009155
33.15	0.011749	0.1236	0.063171	0.008392	0.014343	0.019684	-0.044556	0.000153	-0.006256	-0.024414	-0.005035	-0.005646	-0.07019	-0.065308	0.0177	-0.000305	-0.018463	-0.012665	0.29114	0.19012	-0.10773	-0.07019	0.13214	0.069122	0.015411	-0.00473	0.14603	-0.012207	-0.046234	0.20981	-0.002594	-0.010071
33.151	0.005493	0.16357	0.03418	0.005646	-0.009308	0.094452	-0.04303	0.002899	-0.028076	-0.006561	0.005798	-0.012512	-0.061188	-0.056458	-0.002289	-0.026855	0.022736	-0.072174	0.46661	0.18372	-0.10483	-0.045471	0.14389	0.045929	0.024414	-0.009308	0.29343	-0.004883	-0.076599	0.17532	-0.002441	-0.002441
33.152	-0.003052	0.15915	-0.012665	0.00824	-0.036926	0.13123	0.009308	-0.008392	-0.11337	0.007935	-0.002899	0.001984	-0.065613	-0.030365	-0.003357	-0.005951	0.070038	-0.089874	0.23895	0.045776	-0.12817	-0.054932	0.1471	0.049133	0.017242	-0.003204	0.43091	-0.003052	-0.019989	0.12512	-0.001678	-0.000458
33.153	-0.014038	0.11368	0.10101	0.003815	-0.11963	0.12894	-0.034637	-0.010529	-0.40558	0.022888	0.005035	0.002289	-0.095367	-0.029449	0.029602	-0.0177	0.09903	-0.082855	0.31158	-0.09903	-0.12909	-0.070496	0.15274	0.031128	0.018463	-0.010681	0.27527	0.002289	-0.00412	0.078125	0.000458	-0.002899
33.154	-0.00824	0.063629	0.066986	0.017548	-0.16022	0.11948	0.007019	0.00351	-0.41779	-0.001526	-0.000916	-0.005798	-0.029144	0.072327	0.055389	-0.014954	0.097351	-0.10025	0.28503	-0.095367	-0.12604	-0.088501	0.17212	0.086823	0.009003	-0.012817	0.27878	-0.001221	-0.032959	0.048676	0.000153	-0.000458
33.155	-0.013733	-0.008087	-0.015717	0.016632	-0.098419	0.0914	0.068054	-0.002747	-0.2478	-0.015259	0.017395	0.007019	0.21683	0.1088	0.21057	-0.016479	0.055389	-0.10635	1.0519	0.024261	-0.1294	-0.081482	0.22903	0.067291	0.004425	-0.014343	0.21805	-0.001984	-0.037384	-0.015411	-0.000763	-0.000153
33.156	-0.004272	-0.093842	-0.064545	0.000916	0.083313	0.0177	0.019989	-0.009003	-0.29633	-0.011444	0.037384	0.000916	0.47669	0.086823	0.078278	-0.00885	0.007477	-0.16266	1.2573	-0.041199	-0.12024	-0.088043	0.21576	0.028687	-0.011139	-0.001678	0.1503	-0.002899	0.032654	-0.096893	-0.002441	-0.007629
33.157	-0.000305	-0.058899	-0.007477	0.013885	0.10559	-0.054321	0.006409	-0.009918	-0.37979	-0.001984	0.01297	0.00351	0.61157	0.12833	0.012207	-0.006714	-0.059509	-0.16892	1.1769	-0.03067	-0.11017	-0.10925	0.17853	0.033417	0.000153	-0.003815	0.42313	-0.001068	0.01297	-0.11673	-0.003662	-0.003357
33.158	0.009613	-0.036774	0.022736	0.012054	0.043488	-0.24429	0.014191	-0.009613	-0.19287	0.008392	0.004272	0.003204	0.32898	0.15518	0.029602	-0.011902	-0.070953	-0.23025	1.0693	0.056763	-0.081635	-0.10437	0.18799	0.06012	0.015411	-0.00473	0.95139	-0.001984	-0.057373	-0.092163	-0.003967	-0.000763
33.159	0.009155	-0.039825	0.020752	0.012054	0.028381	-0.20538	0.057678	-0.000305	-0.073853	-0.053406	0.048981	0.001984	-0.26627	0.15656	0.030975	0.001984	-0.049133	-0.23804	0.49255	-0.002441	-0.071259	-0.083618	0.14664	0.065308	0.01358	-0.000916	0.82794	0.001984	-0.09079	-0.1503	-0.001373	-0.007324
33.16	0.00473	-0.019684	-0.030365	0.002136	0.057526	-0.16449	0.023956	0.013733	-0.024719	-0.1239	0.019531	0.010223	-0.71091	0.21744	0.088196	0.00824	-0.034637	-0.25131	0.55862	0.03891	-0.078278	-0.07019	0.14771	0.08667	0.010376	-0.003662	0.52185	-0.007629	-0.13763	-0.10635	-0.001068	-0.010071
33.161	-0.01358	-0.011139	0.009155	0.011292	0.071411	0.012207	0.006866	0.009003	0.000916	-0.14038	0.005951	0.001831	-0.43869	0.25833	0.008087	0.001068	-0.010071	-0.24155	0.78049	0.015869	-0.071869	-0.047302	0.13031	0.096893	0.008087	0.000458	-0.27649	-0.003204	-0.083313	-0.043488	0	-0.003204
33.162	0.000458	0.033875	-0.028839	0.006256	0.05188	0.065002	-0.034943	-0.011749	-0.021362	-0.00885	0.006409	0.00351	0.38116	0.098419	-0.2005	-0.018311	-0.021515	-0.26093	0.88745	-0.057068	-0.075836	-0.057373	0.13351	0.10635	0.02182	0.003815	-0.47104	-0.001984	-0.016937	-0.027924	0.000153	-0.004425
33.163	0.005188	0.055847	-0.091705	0.003967	0.026703	0.048065	-0.003204	-0.015717	-0.02182	0.16144	-0.018921	0.003967	0.31891	0.089111	-0.18097	-0.010376	-0.036469	-0.27008	0.62897	0.00351	-0.090027	-0.066986	0.10788	0.084076	0.007629	0.010986	-0.33722	-0.005646	0.018616	-0.057373	-0.001221	-0.00473
33.164	0.002136	-0.017548	-0.12085	0.005646	0.033417	0.073242	-0.03067	0.002747	-0.070801	0.27298	0.013275	-0.009613	-0.55832	-0.011139	-0.13443	-0.007935	-0.020599	-0.25116	0.4718	0.12116	-0.094147	-0.069427	0.13825	0.09964	0.018921	0.011597	-0.81924	-0.000458	0.16953	-0.11734	-0.001373	-0.00824
33.165	-0.008087	-0.039368	-0.034943	0.007935	0.037384	-0.002289	-0.13657	0.009766	-0.12665	0.24735	-0.008392	0.004425	-0.48096	0.019684	0.014496	-0.008392	-0.036316	-0.26169	0.63232	-0.05249	-0.10773	-0.059509	0.14801	0.043182	0.012665	0.006561	-0.59998	-0.001984	0.14313	-0.11093	-0.002747	-0.003815
